<?xml version="1.0" standalone="no"?><!DOCTYPE svg PUBLIC "-//W3C//DTD SVG 1.1//EN" "http://www.w3.org/Graphics/SVG/1.1/DTD/svg11.dtd"><svg t="1590235014873" class="icon" viewBox="0 0 1365 1024" version="1.1" xmlns="http://www.w3.org/2000/svg" p-id="4700" xmlns:xlink="http://www.w3.org/1999/xlink" width="266.6015625" height="200"><defs><style type="text/css"></style></defs><path d="M1084.472889 203.264c23.04 0 41.699556 19.057778 41.699555 42.496v147.968a42.154667 42.154667 0 0 1-41.699555 42.552889h-145.635556a42.154667 42.154667 0 0 1-41.699555-42.552889v-147.911111a42.097778 42.097778 0 0 1 41.699555-42.552889h145.635556z m0-42.496h-145.635556c-46.08 0-83.456 38.115556-83.456 84.992v147.968c0 46.876444 37.376 84.992 83.456 84.992h145.635556c46.08 0 83.399111-38.115556 83.399111-84.992v-147.911111c0-46.933333-37.376-85.048889-83.399111-85.048889z m125.155555-118.328889c45.966222 0 83.399111 38.115556 83.399112 84.935111V896.568889c0 46.819556-37.432889 84.935111-83.399112 84.935111H125.155556c-46.08 0-83.456-38.115556-83.456-84.935111V127.431111c0-46.819556 37.432889-84.935111 83.456-84.935111h1084.472888z m0-42.439111H125.155556C56.035556 0 0 57.002667 0 127.374222V896.568889C0 966.997333 56.035556 1024 125.155556 1024h1084.472888c69.063111 0 125.155556-57.002667 125.155556-127.374222V127.431111c0-70.371556-56.092444-127.374222-125.155556-127.374222zM208.554667 610.133333h500.508444v42.439111H208.554667v-42.439111z m0 169.813334h500.508444v42.439111H208.554667v-42.439111z" p-id="4701" fill="#409EFF"></path></svg>