<?xml version="1.0" standalone="no"?><!DOCTYPE svg PUBLIC "-//W3C//DTD SVG 1.1//EN" "http://www.w3.org/Graphics/SVG/1.1/DTD/svg11.dtd"><svg t="1590230355033" class="icon" viewBox="0 0 1024 1024" version="1.1" xmlns="http://www.w3.org/2000/svg" p-id="3540" xmlns:xlink="http://www.w3.org/1999/xlink" width="200" height="200"><defs><style type="text/css"></style></defs><path d="M113.1008 356.5312a12.8 12.8 0 0 1-12.8-12.8V175.104A74.9056 74.9056 0 0 1 175.104 100.3008h168.6272a12.8 12.8 0 0 1 0 25.6H175.104c-27.136 0-49.2032 22.0672-49.2032 49.2032v168.6272a12.8 12.8 0 0 1-12.8 12.8zM910.8992 356.5312a12.8 12.8 0 0 1-12.8-12.8V175.104c0-27.136-22.0672-49.2032-49.2032-49.2032h-168.6272a12.8 12.8 0 0 1 0-25.6h168.6272a74.9056 74.9056 0 0 1 74.8032 74.8032v168.6272a12.8 12.8 0 0 1-12.8 12.8zM848.896 923.6992h-168.6272a12.8 12.8 0 0 1 0-25.6h168.6272c27.136 0 49.2032-22.144 49.2032-49.408v-168.6272a12.8 12.8 0 0 1 25.6 0v168.6272a75.008 75.008 0 0 1-74.8032 75.008zM343.7312 923.6992H175.104a75.008 75.008 0 0 1-74.8032-75.008v-168.6272a12.8 12.8 0 0 1 25.6 0v168.6272c0 27.2384 22.0672 49.408 49.2032 49.408h168.6272a12.8 12.8 0 0 1 0 25.6z" fill="#409EFF" p-id="3541"></path><path d="M432.0256 477.2352a96.9472 96.9472 0 0 0-96.8192-96.8192c-53.376 0-96.8192 43.4432-96.8192 96.8192s43.4432 96.8192 96.8192 96.8192c22.3488 0 42.88-7.68 59.264-20.4288l44.6464 44.6464 17.1008-17.1008-44.6464-44.6464a96.1792 96.1792 0 0 0 20.4544-59.2896z m-96.8448 72.6272a72.704 72.704 0 0 1-72.6272-72.6272 72.704 72.704 0 0 1 72.6272-72.6272 72.704 72.704 0 0 1 72.6272 72.6272 72.704 72.704 0 0 1-72.6272 72.6272zM565.3504 537.1136c-8.4736 6.4768-19.3024 9.728-32.4352 9.728-19.9424 0-34.6624-6.2464-44.16-18.7136-8.9856-11.8272-13.4912-28.3648-13.4912-49.664 0-20.9408 4.5824-37.3248 13.7216-49.152 9.6512-13.1328 24.1152-19.712 43.4176-19.712 12.9792 0 23.6032 2.8416 31.9232 8.4736 8.4736 5.6576 14.208 14.5664 17.2288 26.7008h26.4448c-2.8416-18.1248-10.7264-32.4352-23.7056-42.9056-13.312-10.8032-30.4384-16.2304-51.4048-16.2304-28.4416 0-50.0736 9.3952-64.8704 28.1856-13.312 16.4608-19.9424 38.016-19.9424 64.6144 0 27.1104 6.4 48.5632 19.2 64.384 14.7968 18.6368 36.736 27.9552 65.8688 27.9552 19.2768 0 35.7632-5.4784 49.408-16.4608 14.6432-11.6224 23.936-27.8528 27.9552-48.64h-26.4448c-3.4816 13.9776-9.7536 24.448-18.7136 31.4368zM775.168 541.1072l-2.9952-28.4416c-1.9968-17.4592-10.9056-27.9552-26.7008-31.4368v-0.512a39.424 39.424 0 0 0 23.1936-15.7184 43.264 43.264 0 0 0 7.4752-24.96c0-16.7936-5.4784-29.696-16.4608-38.6816-10.3168-8.1408-24.6272-12.2112-42.9056-12.2112H637.952v178.1248h27.1872v-73.6h48.1536c10.3168 0 18.1248 2.176 23.4496 6.4768 5.3248 4.6592 8.4736 11.8016 9.472 21.4528l2.2528 22.1952c0.9984 10.3168 3.584 18.1248 7.7312 23.4496h29.44c-5.9904-6.4256-9.4976-15.1552-10.4704-26.1376z m-61.8752-70.6048h-48.1536v-58.1376h47.8976c12.4928 0 21.632 2.3296 27.4432 6.9888 5.6576 4.6592 8.4736 11.8784 8.4736 21.6832 0 9.472-2.9184 16.7168-8.7296 21.7088-6.144 5.1712-15.1296 7.7568-26.9312 7.7568z" fill="#409EFF" p-id="3542"></path><path d="M238.3616 618.368h547.2768v25.216H238.3616z" fill="#409EFF" p-id="3543"></path></svg>