<?xml version="1.0" standalone="no"?><!DOCTYPE svg PUBLIC "-//W3C//DTD SVG 1.1//EN" "http://www.w3.org/Graphics/SVG/1.1/DTD/svg11.dtd"><svg t="1590229686856" class="icon" viewBox="0 0 1024 1024" version="1.1" xmlns="http://www.w3.org/2000/svg" p-id="1200" xmlns:xlink="http://www.w3.org/1999/xlink" width="200" height="200"><defs><style type="text/css"></style></defs><path d="M384.4 383.6m-40 0a40 40 0 1 0 80 0 40 40 0 1 0-80 0Z" fill="#409EFF" p-id="1201"></path><path d="M647.468 708.603l128.009 31.788-13.496 54.348-128.01-31.788zM640.8 611.7h192v56h-192zM448.8 732c-138.1 0-208.9-69.5-211.9-72.5l39.7-39.5-0.1-0.1c0.1 0.1 14.8 14.3 43.2 28.2 38 18.6 81.5 28 129.1 28V732z" fill="#409EFF" p-id="1202"></path><path d="M541.7 895.4h-56v-411l116.4-0.4-115-347.2 53.1-17.6 139.3 420.6-137.8 0.4z" fill="#409EFF" p-id="1203"></path><path d="M512 988c-64.2 0-126.6-12.6-185.3-37.4-56.7-24-107.6-58.3-151.3-102-43.7-43.7-78-94.6-102-151.3C48.6 638.6 36 576.2 36 512s12.6-126.6 37.4-185.3c24-56.7 58.3-107.6 102-151.3 43.7-43.7 94.6-78 151.3-102C385.4 48.6 447.8 36 512 36s126.6 12.6 185.3 37.4c56.7 24 107.6 58.3 151.3 102 43.7 43.7 78 94.6 102 151.3 24.8 58.7 37.4 121 37.4 185.3s-12.6 126.6-37.4 185.3c-24 56.7-58.3 107.6-102 151.3s-94.6 78-151.3 102C638.6 975.4 576.2 988 512 988z m0-896c-56.7 0-111.7 11.1-163.5 33-50 21.2-94.9 51.4-133.5 90s-68.9 83.5-90 133.5C103.1 400.3 92 455.3 92 512s11.1 111.7 33 163.5c21.2 50 51.4 94.9 90 133.5s83.5 68.9 133.5 90c51.8 21.9 106.8 33 163.5 33s111.7-11.1 163.5-33c50-21.2 94.9-51.4 133.5-90s68.9-83.5 90-133.5c21.9-51.8 33-106.8 33-163.5s-11.1-111.7-33-163.5c-21.2-50-51.4-94.9-90-133.5s-83.5-68.9-133.5-90C623.7 103.1 568.7 92 512 92z" fill="#409EFF" p-id="1204"></path></svg>